<svg xmlns="http://www.w3.org/2000/svg" width="258" height="22" viewBox="0 0 258 22" fill="none">
<path d="M0.0400391 0.381197V22H5.31506V12.9662H22.0617V8.66736H5.31506V4.68003H22.5701V0.381197H0.0400391Z" fill="white"/>
<path d="M32.0549 0.381197H26.7799V22H32.0549V0.381197Z" fill="white"/>
<path d="M36.5077 0.381197V22H41.7827V4.68003H42.5136L55.7647 22H64.8212V0.381197H59.5462V17.7012H58.8153L45.3735 0.381197H36.5077Z" fill="white"/>
<path d="M67.9522 0.381197V4.68003H77.1676V22H82.4427V4.68003H91.7534V0.381197H67.9522Z" fill="white"/>
<path d="M94.3847 22H116.915V17.9192H99.6597V12.9662H116.375V9.19693H99.6597V4.46198H116.915V0.381197H94.3847V22Z" fill="white"/>
<path d="M140.843 14.5238C140.843 17.1404 139.762 17.7012 136.616 17.7012H129.848C126.829 17.7012 125.589 17.0781 125.589 13.7761V8.41815C125.589 5.0227 126.32 4.43083 129.848 4.43083H136.616C139.667 4.43083 140.843 5.39651 140.843 7.67053H146.118C146.118 1.59609 142.845 0.131989 137.633 0.131989H128.863C122.38 0.131989 120.314 1.90759 120.314 8.23125V14.368C120.314 20.1621 122.253 22 128.354 22H138.173C144.688 22 146.118 20.2867 146.149 14.5238H140.843Z" fill="white"/>
<path d="M154.607 0.381197H149.332V22H154.607V12.9662H168.24V22H173.515V0.381197H168.24V8.66736H154.607V0.381197Z" fill="white"/>
<path d="M182.071 0.381197H176.796V22H182.071V12.9662H195.703V22H200.978V0.381197H195.703V8.66736H182.071V0.381197Z" fill="#30a8ff"/>
<path d="M204.069 0.381197V14.3057C204.069 19.5391 206.675 22 212.236 22H221.928C227.616 22 229.808 20.0063 229.808 14.3057V0.381197H224.533V13.7761C224.533 16.7355 223.294 17.7012 220.688 17.7012H213.411C210.583 17.7012 209.344 16.7978 209.344 13.8073V0.381197H204.069Z" fill="#30a8ff"/>
<path d="M238.308 4.46198H249.049C250.511 4.46198 251.242 5.30305 251.242 6.6114C251.242 8.04434 250.511 9.13463 249.081 9.13463H238.308V4.46198ZM233.033 22H250.002C254.991 22 257.375 20.2867 257.375 15.6452C257.375 12.2497 255.976 11.3152 253.784 10.5987C255.563 10.038 256.517 9.29038 256.517 5.80147C256.517 1.81414 253.816 0.381197 248.922 0.381197H233.033V22ZM238.308 12.9662H249.081C251.814 12.9662 252.1 13.745 252.1 15.396C252.1 17.2962 251.718 17.9192 248.89 17.9192H238.308V12.9662Z" fill="#30a8ff"/>
</svg>